<svg xmlns="http://www.w3.org/2000/svg" width="176.03" height="178.284" viewBox="0 0 176.03 178.284">
  <g id="Grupo_77" data-name="Grupo 77" transform="translate(-62.059 -11.966)">
    <g id="Grupo_48" data-name="Grupo 48" transform="matrix(0.883, 0.469, -0.469, 0.883, 123.619, 0)">
      <path id="Caminho_66" data-name="Caminho 66" d="M17.312,2.657,105.638.007c7.227-.217,12.91,4.6,12.693,10.749L114.5,119.389c-.217,6.153-6.251,11.318-13.478,11.534L12.7,133.574c-7.227.217-12.91-4.6-12.693-10.749L3.834,14.192C4.051,8.038,10.085,2.874,17.312,2.657Z" transform="translate(25.488 0) rotate(11)" fill="#bdcb59"/>
      <path id="Caminho_67" data-name="Caminho 67" d="M13.079,0,101.9.541c7.267.044,13.195,4.946,13.239,10.947l.781,105.956c.044,6-5.811,10.831-13.079,10.787l-88.823-.541C6.753,127.647.826,122.745.781,116.743L0,10.787C-.044,4.786,5.812-.044,13.079,0Z" transform="matrix(0.985, -0.174, 0.174, 0.985, 2.612, 23.776)" fill="#99a73a"/>
    </g>
    <g id="Grupo_41" data-name="Grupo 41" transform="translate(92.941 51.119)">
      <path id="Caminho_30" data-name="Caminho 30" d="M124.457,397.5a5,5,0,1,0,5.013,5A5.013,5.013,0,0,0,124.457,397.5Zm0,6.668a1.667,1.667,0,1,1,1.679-1.667A1.675,1.675,0,0,1,124.457,404.168Z" transform="translate(-92.895 -311.482)" fill="#fff"/>
      <path id="Caminho_31" data-name="Caminho 31" d="M111.851,38.167a1.667,1.667,0,0,0-1.667-1.667H99.029a1.667,1.667,0,1,0,0,3.334h11.155A1.667,1.667,0,0,0,111.851,38.167Z" transform="translate(-75.721 -30.721)" fill="#fff"/>
      <path id="Caminho_32" data-name="Caminho 32" d="M172.931,39.109a1.667,1.667,0,1,0,.209-2.1A1.68,1.68,0,0,0,172.931,39.109Z" transform="translate(-134.279 -30.738)" fill="#fff"/>
      <path id="Caminho_33" data-name="Caminho 33" d="M103.768,16.946h-41.3A10.047,10.047,0,0,0,53.091,10.5H10.033A10.029,10.029,0,0,0,0,20.5V36.061a1.667,1.667,0,1,0,3.334,0v-9.78H22.75a1.667,1.667,0,1,0,0-3.334H3.334V20.5a6.691,6.691,0,0,1,6.7-6.668H53.091a6.691,6.691,0,0,1,6.7,6.668v2.445H30.558a1.667,1.667,0,1,0,0,3.334H59.79V89.85H3.334V43.84A1.667,1.667,0,0,0,0,43.84v59.346a10.029,10.029,0,0,0,10.033,10h41.3a9.98,9.98,0,0,0,9.382,6.446H95.96a1.667,1.667,0,1,0,0-3.334H60.71a6.669,6.669,0,0,1-5.775-3.284,10.025,10.025,0,0,0,8.188-9.83V99.63h47.343v10a6.691,6.691,0,0,1-6.7,6.668,1.667,1.667,0,1,0,0,3.334,10.029,10.029,0,0,0,10.033-10v-57.9a1.667,1.667,0,1,0-3.334,0V96.3H63.124V32.727h47.343V43.951a1.667,1.667,0,1,0,3.334,0v-17a10.029,10.029,0,0,0-10.033-10ZM59.79,103.186a6.691,6.691,0,0,1-6.7,6.668H10.033a6.691,6.691,0,0,1-6.7-6.668v-10H59.79Zm3.334-73.793s0-9.039-.006-9.113h40.65a6.691,6.691,0,0,1,6.7,6.668v2.445Z" transform="translate(0 -10.5)" fill="#fff"/>
      <path id="Caminho_34" data-name="Caminho 34" d="M347.444,431.5a5.013,5.013,0,1,0,5.013-5A5.013,5.013,0,0,0,347.444,431.5Zm6.693,0a1.68,1.68,0,1,1-1.679-1.667A1.675,1.675,0,0,1,354.137,431.5Z" transform="translate(-270.218 -334.036)" fill="#fff"/>
      <path id="Caminho_35" data-name="Caminho 35" d="M338.184,65.5H327.029a1.667,1.667,0,0,0,0,3.334h11.155a1.667,1.667,0,0,0,0-3.334Z" transform="translate(-253.044 -53.275)" fill="#fff"/>
      <path id="Caminho_36" data-name="Caminho 36" d="M403.869,66.549a1.648,1.648,0,0,0-.362-.54,1.662,1.662,0,1,0,.362.54Z" transform="translate(-311.612 -53.295)" fill="#fff"/>
      <path id="Caminho_37" data-name="Caminho 37" d="M91.165,188.675a1.668,1.668,0,0,0,1.558-1.074l1.96-5.148h12.985l1.941,5.143a1.667,1.667,0,1,0,3.119-1.177L103.3,161.437c-.006-.015-.012-.031-.018-.046A2.233,2.233,0,0,0,101.211,160h0a2.234,2.234,0,0,0-2.072,1.393l-.015.038-9.514,24.98a1.668,1.668,0,0,0,1.558,2.261Zm10.041-23.347,5.2,13.791H95.953Z" transform="translate(-69.605 -126.773)" fill="#fff"/>
      <path id="Caminho_38" data-name="Caminho 38" d="M336.57,188.5h-7.4a1.667,1.667,0,0,0-1.667,1.667v25.339a1.677,1.677,0,0,0,1.674,1.667c.068,0,6.836-.03,8.69-.03a8.478,8.478,0,0,0,4.105-15.924,7.485,7.485,0,0,0-5.4-12.718Zm0,3.334a4.163,4.163,0,1,1,0,8.327l-5.737.007v-8.334Zm1.293,21.974c-1.28,0-4.882.014-7.031.023V203.514c.884,0,7.031-.012,7.031-.012a5.153,5.153,0,1,1,0,10.307Z" transform="translate(-254.706 -148.936)" fill="#fff"/>
    </g>
  </g>
</svg>
