<svg xmlns="http://www.w3.org/2000/svg" width="176.03" height="178.284" viewBox="0 0 176.03 178.284">
  <g id="Grupo_49" data-name="Grupo 49" transform="matrix(0.883, 0.469, -0.469, 0.883, 61.56, -11.966)">
    <path id="Caminho_66" data-name="Caminho 66" d="M17.312,2.657,105.638.007c7.227-.217,12.91,4.6,12.693,10.749L114.5,119.389c-.217,6.153-6.251,11.318-13.478,11.534L12.7,133.574c-7.227.217-12.91-4.6-12.693-10.749L3.834,14.192C4.051,8.038,10.085,2.874,17.312,2.657Z" transform="translate(25.488 0) rotate(11)" fill="#f39662"/>
    <path id="Caminho_67" data-name="Caminho 67" d="M13.079,0,101.9.541c7.267.044,13.195,4.946,13.239,10.947l.781,105.956c.044,6-5.811,10.831-13.079,10.787l-88.823-.541C6.753,127.647.826,122.745.781,116.743L0,10.787C-.044,4.786,5.812-.044,13.079,0Z" transform="matrix(0.985, -0.174, 0.174, 0.985, 2.612, 23.776)" fill="#bf6939"/>
  </g>
  <g id="Grupo_42" data-name="Grupo 42" transform="translate(22.613 39.153)">
    <path id="Caminho_39" data-name="Caminho 39" d="M126.576,393.771a1.731,1.731,0,0,0-1.731,1.731v1.977a1.731,1.731,0,1,0,3.462,0V395.5A1.731,1.731,0,0,0,126.576,393.771Z" transform="translate(-96.028 -307.404)" fill="#fff"/>
    <path id="Caminho_40" data-name="Caminho 40" d="M190.231,393.771A1.731,1.731,0,0,0,188.5,395.5v1.977a1.731,1.731,0,1,0,3.462,0V395.5A1.731,1.731,0,0,0,190.231,393.771Z" transform="translate(-144.99 -307.404)" fill="#fff"/>
    <path id="Caminho_41" data-name="Caminho 41" d="M253.887,393.771a1.731,1.731,0,0,0-1.731,1.731v1.977a1.731,1.731,0,1,0,3.462,0V395.5A1.731,1.731,0,0,0,253.887,393.771Z" transform="translate(-193.953 -307.404)" fill="#fff"/>
    <path id="Caminho_42" data-name="Caminho 42" d="M158.4,426.054a1.731,1.731,0,0,0-1.731,1.731v1.977a1.731,1.731,0,0,0,3.462,0v-1.977A1.731,1.731,0,0,0,158.4,426.054Z" transform="translate(-120.509 -332.235)" fill="#fff"/>
    <path id="Caminho_43" data-name="Caminho 43" d="M222.059,426.054a1.731,1.731,0,0,0-1.731,1.731v1.977a1.731,1.731,0,0,0,3.462,0v-1.977A1.731,1.731,0,0,0,222.059,426.054Z" transform="translate(-169.472 -332.235)" fill="#fff"/>
    <path id="Caminho_44" data-name="Caminho 44" d="M116.449,79.381a1.731,1.731,0,0,0,1.731-1.731V47.357a2.222,2.222,0,0,0-3.7-1.657l-3.358,3a.216.216,0,0,1-.291,0l-2.879-2.576a3.685,3.685,0,0,0-4.905,0l-2.063,1.846L89.538,34.7a12.4,12.4,0,0,0-11.745-4.061L58.716,34.378a5.1,5.1,0,0,1-2.433-.119l-6.72-2.013a3.63,3.63,0,0,0-2.582-3.389l-6.257-1.874a3.142,3.142,0,0,0-2.239-2.858L23.611,19.67a1.731,1.731,0,0,0-.994,3.317l14.574,4.366L29.459,53.168,14.885,48.8a1.731,1.731,0,0,0-.994,3.317l14.874,4.455a3.15,3.15,0,0,0,3.921-2.113l.742-2.478L39.509,53.8a3.619,3.619,0,0,0,4.031-1.428s13.5,4,27.366,7.927V87.259H59.889l-7.8-19.245a1.731,1.731,0,1,0-3.209,1.3l7.275,17.945H34.328L41.6,69.314a1.731,1.731,0,1,0-3.209-1.3l-7.8,19.245h-6.12a1.731,1.731,0,1,0,0,3.462H70.906v5.367H4.674a1.213,1.213,0,0,1-1.212-1.212V91.933a1.213,1.213,0,0,1,1.212-1.212H16.393a1.731,1.731,0,0,0,0-3.462H4.674A4.679,4.679,0,0,0,0,91.933v2.943A4.679,4.679,0,0,0,4.674,99.55H9.035l8.442,23.921a7.894,7.894,0,0,0,7.433,5.259H65.572A7.893,7.893,0,0,0,73,123.472l2.176-6.163a4.974,4.974,0,0,0,.691.054h37.347a4.969,4.969,0,0,0,4.963-4.965V85.729a1.731,1.731,0,1,0-3.462,0V112.4a1.5,1.5,0,0,1-1.5,1.5H75.871a1.5,1.5,0,0,1-1.5-1.5V61.264l5.89,1.636a1.73,1.73,0,0,0,1.727,1.659H94.466a1.731,1.731,0,1,0,0-3.462H90.172a6.843,6.843,0,0,0-.621-8.907,3.665,3.665,0,0,0,1.97-.9L94.4,48.712a.219.219,0,0,1,.288,0l2.879,2.577a3.665,3.665,0,0,0,3.731.7c.021-.007.174-.07.2-.084a3.91,3.91,0,0,0,.972-.62l2.875-2.573a.222.222,0,0,1,.293,0l2.877,2.574a3.678,3.678,0,0,0,4.907,0l1.29-1.154V77.65a1.731,1.731,0,0,0,1.731,1.731ZM69.74,122.32a4.425,4.425,0,0,1-4.168,2.949H24.91a4.426,4.426,0,0,1-4.168-2.949L12.707,99.55h58.2V112.4a4.94,4.94,0,0,0,1.2,3.225ZM40.5,50.487l-6.081-1.821,5.486-18.313,6.081,1.821a.163.163,0,0,1,.109.2l-5.392,18a.164.164,0,0,1-.2.109Zm48.71-1.781a.219.219,0,0,1-.289,0l-2.879-2.577a3.677,3.677,0,0,0-4.9,0L79,48.043l-2.738-.864L74.606,45.7a2.207,2.207,0,0,0-2.974.021l-2.791-.88a1.731,1.731,0,0,0-1.041,3.3l17.9,5.644a3.389,3.389,0,0,1-1.926,6.5S74.826,57.754,44.7,49.106l4.041-13.492,6.549,1.962a8.582,8.582,0,0,0,4.091.2l19.076-3.741a8.926,8.926,0,0,1,8.457,2.924l7.13,8.274a3.663,3.663,0,0,0-1.952.9ZM85.16,49.985l-2.318-.731.606-.542a.22.22,0,0,1,.289,0Z" transform="translate(0 -19.597)" fill="#fff"/>
    <path id="Caminho_45" data-name="Caminho 45" d="M357.253,341a1.731,1.731,0,0,0,1.731-1.731v-1.029a4.887,4.887,0,0,0-1.34-9.586h-.781a1.426,1.426,0,1,1,0-2.853h3.371a1.731,1.731,0,0,0,0-3.462h-1.25V321.5a1.731,1.731,0,0,0-3.462,0v1.03a4.887,4.887,0,0,0,1.342,9.586h.781a1.426,1.426,0,0,1,0,2.853h-3.371a1.731,1.731,0,0,0,0,3.462h1.249v.838A1.731,1.731,0,0,0,357.253,341Z" transform="translate(-270.731 -250.484)" fill="#fff"/>
    <path id="Caminho_46" data-name="Caminho 46" d="M420.461,385.624a1.731,1.731,0,0,0,0,3.462h8.524a1.731,1.731,0,0,0,0-3.462Z" transform="translate(-322.078 -301.137)" fill="#fff"/>
    <path id="Caminho_47" data-name="Caminho 47" d="M452.722,199.39h-2.686a1.731,1.731,0,0,0,0,3.462h2.686a1.731,1.731,0,1,0,0-3.462Z" transform="translate(-344.827 -157.89)" fill="#fff"/>
    <path id="Caminho_48" data-name="Caminho 48" d="M452.722,235.554h-2.686a1.731,1.731,0,0,0,0,3.462h2.686a1.731,1.731,0,1,0,0-3.462Z" transform="translate(-344.827 -185.706)" fill="#fff"/>
    <path id="Caminho_49" data-name="Caminho 49" d="M361.9,235.554H349.421a1.731,1.731,0,0,0,0,3.462H361.9a1.731,1.731,0,0,0,0-3.462Z" transform="translate(-267.436 -185.706)" fill="#fff"/>
    <path id="Caminho_50" data-name="Caminho 50" d="M454.454,273.448a1.731,1.731,0,0,0-1.731-1.731h-2.686a1.731,1.731,0,0,0,0,3.462h2.686A1.731,1.731,0,0,0,454.454,273.448Z" transform="translate(-344.827 -213.522)" fill="#fff"/>
    <path id="Caminho_51" data-name="Caminho 51" d="M363.633,273.448a1.731,1.731,0,0,0-1.731-1.731H349.421a1.731,1.731,0,0,0,0,3.462H361.9A1.731,1.731,0,0,0,363.633,273.448Z" transform="translate(-267.436 -213.522)" fill="#fff"/>
  </g>
</svg>
