<svg xmlns="http://www.w3.org/2000/svg" width="176.03" height="178.284" viewBox="0 0 176.03 178.284">
  <g id="Grupo_47" data-name="Grupo 47" transform="matrix(0.883, 0.469, -0.469, 0.883, 61.56, -11.966)">
    <path id="Caminho_66" data-name="Caminho 66" d="M17.312,2.657,105.638.007c7.227-.217,12.91,4.6,12.693,10.749L114.5,119.389c-.217,6.153-6.251,11.318-13.478,11.534L12.7,133.574c-7.227.217-12.91-4.6-12.693-10.749L3.834,14.192C4.051,8.038,10.085,2.874,17.312,2.657Z" transform="translate(25.488 0) rotate(11)" fill="#11aabd"/>
    <path id="Caminho_67" data-name="Caminho 67" d="M13.079,0,101.9.541c7.267.044,13.195,4.946,13.239,10.947l.781,105.956c.044,6-5.811,10.831-13.079,10.787l-88.823-.541C6.753,127.647.826,122.745.781,116.743L0,10.787C-.044,4.786,5.812-.044,13.079,0Z" transform="matrix(0.985, -0.174, 0.174, 0.985, 2.612, 23.776)" fill="#08818f"/>
  </g>
  <g id="Grupo_39" data-name="Grupo 39" transform="translate(32.517 32.518)">
    <g id="Grupo_38" data-name="Grupo 38" transform="translate(0 0)">
      <path id="Caminho_3" data-name="Caminho 3" d="M244.012,94.8a1.573,1.573,0,0,0-1.573,1.573v2.606a1.573,1.573,0,0,0,3.146,0V96.376A1.573,1.573,0,0,0,244.012,94.8Z" transform="translate(-191.598 -74.922)" fill="#fff"/>
      <path id="Caminho_4" data-name="Caminho 4" d="M245.585,50.812a1.573,1.573,0,1,0-3.146,0v2.606a1.573,1.573,0,0,0,3.146,0Z" transform="translate(-191.598 -38.913)" fill="#fff"/>
      <path id="Caminho_5" data-name="Caminho 5" d="M1.573,12.788a1.573,1.573,0,0,0,1.573-1.573V3.691a.546.546,0,0,1,.545-.545H50.3a.546.546,0,0,1,.545.544v1.26a1.573,1.573,0,1,0,3.146,0V3.695s0,0,0,0a.546.546,0,0,1,.545-.545H75.716a.546.546,0,0,1,.545.545v24.3a1.573,1.573,0,0,0,3.146,0V3.691A3.7,3.7,0,0,0,75.716,0H54.532a3.667,3.667,0,0,0-2.118.673A3.667,3.667,0,0,0,50.3,0H3.691A3.7,3.7,0,0,0,0,3.691v7.524a1.573,1.573,0,0,0,1.573,1.573Z" transform="translate(0 0)" fill="#fff"/>
      <path id="Caminho_6" data-name="Caminho 6" d="M83.311,33.9a1.573,1.573,0,0,0-1.573-1.573H52.081A1.573,1.573,0,0,0,50.508,33.9v6.779a1.573,1.573,0,0,0,1.573,1.573H81.738a1.573,1.573,0,0,0,1.573-1.573ZM80.165,39.1H53.654V35.471H80.165Z" transform="translate(-39.916 -25.546)" fill="#fff"/>
      <path id="Caminho_7" data-name="Caminho 7" d="M295.237,52.528h-6.779a1.573,1.573,0,0,0,0,3.146h6.779a1.573,1.573,0,1,0,0-3.146Z" transform="translate(-226.725 -41.513)" fill="#fff"/>
      <path id="Caminho_8" data-name="Caminho 8" d="M295.237,84.854h-6.779a1.573,1.573,0,0,0,0,3.146h6.779a1.573,1.573,0,1,0,0-3.146Z" transform="translate(-226.725 -67.06)" fill="#fff"/>
      <path id="Caminho_9" data-name="Caminho 9" d="M295.237,117.179h-6.779a1.573,1.573,0,0,0,0,3.146h6.779a1.573,1.573,0,0,0,0-3.146Z" transform="translate(-226.725 -92.606)" fill="#fff"/>
      <path id="Caminho_10" data-name="Caminho 10" d="M81.738,149.5H52.081a1.573,1.573,0,0,0,0,3.146H81.738a1.573,1.573,0,0,0,0-3.146Z" transform="translate(-39.916 -118.152)" fill="#fff"/>
      <path id="Caminho_11" data-name="Caminho 11" d="M81.738,117.179H52.081a1.573,1.573,0,1,0,0,3.146H81.738a1.573,1.573,0,0,0,0-3.146Z" transform="translate(-39.916 -92.606)" fill="#fff"/>
      <path id="Caminho_12" data-name="Caminho 12" d="M215.909,187.789a20.2,20.2,0,1,0,0,28.588,20.238,20.238,0,0,0,0-28.588Zm-2.224,26.363a17.061,17.061,0,1,1,0-24.139A17.088,17.088,0,0,1,213.685,214.152Z" transform="translate(-143.36 -143.738)" fill="#fff"/>
      <path id="Caminho_13" data-name="Caminho 13" d="M475.708,431.054l-6.362-6.362a1.573,1.573,0,0,0-2.224,2.224l6.362,6.362a1.573,1.573,0,1,0,2.224-2.224Z" transform="translate(-368.8 -335.268)" fill="#fff"/>
      <path id="Caminho_14" data-name="Caminho 14" d="M84.145,155.045l6.764-6.764,2.216,2.216a1.573,1.573,0,0,0,2.224-2.224l-3.328-3.328a1.573,1.573,0,0,0-2.225,0l-.686.686-3.167-3.167.685-.685a1.573,1.573,0,0,0,0-2.224l-4.522-4.522a27.065,27.065,0,0,0-2.7-29.41V99.39a1.573,1.573,0,1,0-3.146,0v2.892a26.986,26.986,0,0,0-22.275-6.533v-.695a1.573,1.573,0,1,0-3.146,0v1.389A26.825,26.825,0,0,0,39.168,103.3a27.1,27.1,0,0,0-2.671,3.108H3.691a.546.546,0,0,1-.545-.545V82.613a1.573,1.573,0,0,0-3.146,0v23.254a3.7,3.7,0,0,0,3.691,3.691H34.507A27,27,0,0,0,70.9,146.243l4.522,4.522a1.573,1.573,0,0,0,2.225,0l.685-.685,3.167,3.167-.686.686a1.573,1.573,0,0,0,0,2.224l14.8,14.8a1.573,1.573,0,1,0,2.225-2.224ZM41.392,139.253a23.847,23.847,0,1,1,33.725,0A23.874,23.874,0,0,1,41.392,139.253Zm32.268,5.306a27.157,27.157,0,0,0,6.763-6.763l2.869,2.869-6.763,6.763Zm6.891,3.3,3.168-3.168,3.167,3.167-3.168,3.168Z" transform="translate(0 -64.046)" fill="#fff"/>
    </g>
  </g>
</svg>
