<svg xmlns="http://www.w3.org/2000/svg" width="1155.563" height="732.033" viewBox="0 0 1155.563 732.033">
  <g id="Grupo_76" data-name="Grupo 76" transform="matrix(-0.259, 0.966, -0.966, -0.259, 1119.869, 296.79)">
    <path id="Caminho_72" data-name="Caminho 72" d="M95.145,1041.76s-114.443.884,34.918-240.6,11.051-237.9-93.922-449.218S4.14,42.579,68.924,5.176,193.492-28.2,193.492-28.2s227.058,721.867,260.9,973.7Z" transform="translate(-11.66 -1.017)" fill="#1c0b70"/>
    <path id="Caminho_74" data-name="Caminho 74" d="M337.729,948.2l-201.638,64s69.272-104.952,36.446-232.314C140.024,653.725,26.111,646.99,2.275,462.952s7.762-289.039,27.311-337.387,81.843-21.93,81.843-21.93Z" transform="translate(103.042 -0.74)" fill="#f5f3f4"/>
    <path id="Caminho_73" data-name="Caminho 73" d="M382.941,948.241,219.715,991.977s-148.567-162.624-23.3-380.612c45.72-79.565,34.208-121.56.316-151.937C137.9,406.711,11.425,389.25,1.147,270.679-15.049,83.953,128.608-.941,128.608-.941Z" transform="translate(62.047 0.85)" fill="#4052f2"/>
  </g>
</svg>
